<?xml version="1.0" encoding="UTF-8" standalone="no"?>
<!-- Created with Inkscape (http://www.inkscape.org/) -->

<svg
   xmlns:dc="http://purl.org/dc/elements/1.1/"
   xmlns:cc="http://creativecommons.org/ns#"
   xmlns:rdf="http://www.w3.org/1999/02/22-rdf-syntax-ns#"
   xmlns:svg="http://www.w3.org/2000/svg"
   xmlns="http://www.w3.org/2000/svg"
   xmlns:xlink="http://www.w3.org/1999/xlink"
   xmlns:sodipodi="http://sodipodi.sourceforge.net/DTD/sodipodi-0.dtd"
   xmlns:inkscape="http://www.inkscape.org/namespaces/inkscape"
   width="348.96243"
   height="528.12158"
   id="svg2"
   version="1.1"
   inkscape:version="0.47 r22583"
   sodipodi:docname="the-bag.svg"
   inkscape:export-filename="/home/brian/funkwave/bosses/bag-vec.png"
   inkscape:export-xdpi="10.832111"
   inkscape:export-ydpi="10.832111">
  <defs
     id="defs4">
    <inkscape:perspective
       sodipodi:type="inkscape:persp3d"
       inkscape:vp_x="0 : 526.18109 : 1"
       inkscape:vp_y="0 : 1000 : 0"
       inkscape:vp_z="744.09448 : 526.18109 : 1"
       inkscape:persp3d-origin="372.04724 : 350.78739 : 1"
       id="perspective10" />
    <inkscape:perspective
       id="perspective3322"
       inkscape:persp3d-origin="0.5 : 0.33333333 : 1"
       inkscape:vp_z="1 : 0.5 : 1"
       inkscape:vp_y="0 : 1000 : 0"
       inkscape:vp_x="0 : 0.5 : 1"
       sodipodi:type="inkscape:persp3d" />
  </defs>
  <sodipodi:namedview
     id="base"
     pagecolor="#ffffff"
     bordercolor="#666666"
     borderopacity="1.0"
     inkscape:pageopacity="0.0"
     inkscape:pageshadow="2"
     inkscape:zoom="0.695835"
     inkscape:cx="-326.52092"
     inkscape:cy="-12.20607"
     inkscape:document-units="px"
     inkscape:current-layer="layer1"
     showgrid="false"
     inkscape:window-width="1678"
     inkscape:window-height="1003"
     inkscape:window-x="0"
     inkscape:window-y="23"
     inkscape:window-maximized="0" />
  <metadata
     id="metadata7">
    <rdf:RDF>
      <cc:Work
         rdf:about="">
        <dc:format>image/svg+xml</dc:format>
        <dc:type
           rdf:resource="http://purl.org/dc/dcmitype/StillImage" />
        <dc:title></dc:title>
      </cc:Work>
    </rdf:RDF>
  </metadata>
  <g
     inkscape:label="Layer 1"
     inkscape:groupmode="layer"
     id="layer1"
     transform="translate(-170.75629,-246.8287)">
    <image
       y="-463.63528"
       x="-3435.2151"
       id="image3324"
       height="539"
       width="566"
       xlink:href="file:///home/brian/funkwave/art/the-bag-small.jpg" />
    <image
       xlink:href="file:///home/brian/funkwave/art/the-bag-small.jpg"
       width="566"
       height="539"
       id="image3328"
       x="-2152.2322"
       y="1329.224"
       transform="matrix(0.70710678,0.70710678,-0.70710678,0.70710678,0,0)" />
    <image
       transform="matrix(0.70710678,0.70710678,-0.70710678,0.70710678,0,0)"
       y="-2234.0942"
       x="1246.1423"
       id="image3330"
       height="539"
       width="566"
       xlink:href="file:///home/brian/funkwave/art/the-bag-small.jpg" />
    <path
       id="path3334"
       d="m 3341.0422,-107.55133 c 0.3038,0.0203 2.5122,1.57728 4.9074,3.46001 3.0354,2.38589 3.8177,3.31777 2.5815,3.07536 -1.5915,-0.31211 -8.825,-6.62455 -7.4889,-6.53537 z m 31.8692,11.146484 c -3.685,-5.022864 -4.997,-7.975704 -6.3959,-14.394944 -0.5983,-2.74527 -1.5301,-6.51452 -2.0708,-8.37611 -0.5406,-1.86158 -0.9861,-5.23444 -0.99,-7.49525 0,-2.26081 -0.1884,-4.88567 -0.41,-5.83303 -0.4179,-1.78645 1.0795,-10.97492 1.9266,-11.82203 0.265,-0.26493 1.0785,-2.9877 1.808,-6.05061 0.7294,-3.06289 1.9958,-6.23846 2.8142,-7.05681 0.8183,-0.81834 1.2095,-2.40739 0.8692,-3.5312 -0.3961,-1.30815 0.3428,-3.34399 2.0537,-5.65857 1.4698,-1.9884 2.5865,-4.53934 2.4816,-5.66877 -0.105,-1.12942 0.296,-4.12156 0.891,-6.64919 0.5951,-2.52764 1.1389,-6.22192 1.2086,-8.20951 0.1585,-4.52118 3.7176,-16.73304 8.2518,-28.31286 0.5471,-1.3974 1.1745,-3.31556 1.3942,-4.26259 0.2197,-0.94704 0.6912,-2.38474 1.0478,-3.1949 0.3565,-0.81016 0.942,-2.87344 1.301,-4.58504 1.4665,-6.99174 5.2278,-21.36159 6.5536,-25.03704 0.4123,-1.14326 0.683,-3.35774 0.6014,-4.92106 -0.082,-1.56331 0.3341,-3.32486 0.9238,-3.91455 0.5897,-0.5897 1.1539,-1.9952 1.2537,-3.12337 0.2292,-2.59095 4.2339,-19.33477 4.7471,-19.84797 1.2309,-1.23091 5.7078,-29.21474 6.8631,-42.89931 1.0208,-12.09048 1.4274,-31.44638 0.7218,-34.35404 -0.4492,-1.85113 -0.8599,-5.32064 -0.9127,-7.71004 -0.053,-2.3894 -0.4829,-5.62232 -0.9559,-7.18428 -1.0957,-3.6187 -1.5811,-8.5246 -1.5661,-15.83049 0.019,-9.434 0.7121,-21.33497 1.2746,-21.89745 0.7265,-0.72651 1.8292,-20.01213 2.1428,-37.47711 0.387,-21.54805 1.4068,-40.64399 2.3707,-44.3904 0.4672,-1.81565 0.6109,-3.53973 0.3193,-3.83127 -0.2915,-0.29155 0.2622,-4.35172 1.2305,-9.02259 3.4679,-16.72813 4.6485,-19.76762 12.508,-32.2002 9.7843,-15.47744 17.9096,-21.67737 37.8103,-28.85082 3.7163,-1.33957 9.9716,-3.64069 13.9008,-5.1136 3.9292,-1.47291 9.9618,-2.82024 13.4058,-2.99407 3.4439,-0.17383 11.5718,-0.57118 18.0619,-0.883 6.4901,-0.31183 15.289,0.11706 19.553,0.95308 4.2641,0.83601 10.9831,2.10814 14.9312,2.82696 7.2904,1.32733 14.5703,4.06615 24.6626,9.27848 12.022,6.20892 18.2341,9.78712 19.9223,11.4753 0.9687,0.96867 3.8403,2.96204 6.3815,4.4297 10.727,6.19552 23.1148,16.22098 23.8402,19.29399 0.1154,0.48852 3.6297,4.42946 7.8097,8.75764 5.6767,5.87793 8.452,9.52263 10.9667,14.40222 1.8517,3.59305 4.5787,8.82097 6.0601,11.6176 1.4814,2.79662 4.009,8.86035 5.6169,13.47495 4.3583,12.50761 7.9775,21.82042 11.8738,30.55262 1.9198,4.3027 3.5879,8.68042 3.7068,9.72826 0.1189,1.04784 1.1574,4.68246 2.3078,8.07692 1.1504,3.39447 1.9361,7.47325 1.7461,9.06396 -0.19,1.59072 -0.076,3.1671 0.2544,3.50307 0.3299,0.33598 0.8769,4.86049 1.2156,10.05447 0.3387,5.19398 1.047,12.42032 1.5739,16.05853 0.5269,3.63821 1.0685,9.70682 1.2035,13.4858 0.2695,7.54431 1.4916,20.85085 2.6183,28.50825 0.9833,6.6831 0.4527,13.49988 -1.288,16.54744 -0.9491,1.66151 -1.0135,4.67452 -0.1873,8.76266 0.6926,3.42673 1.0125,11.48535 0.7109,17.90803 -0.6033,12.84993 1.3378,37.13882 4.3494,54.42362 1.0668,6.12259 2.3467,15.56188 2.8442,20.97622 0.4975,5.41433 1.2697,11.07007 1.716,12.56831 0.4463,1.49824 0.9022,6.02272 1.013,10.05441 0.1329,4.83062 1.3856,10.57074 3.6734,16.83269 5.9348,16.24339 11.4478,33.9121 11.5651,37.06496 0.1147,3.08098 0.9708,6.95514 2.1214,9.59895 0.3537,0.81295 1.083,2.83996 1.6205,4.50445 0.5375,1.6645 1.5635,3.61256 2.28,4.32902 0.7165,0.71646 1.4503,2.9539 1.6308,4.97209 0.1805,2.01818 1.1142,6.47422 2.075,9.90229 0.9607,3.42807 1.2849,7.02172 0.7205,7.98589 -0.5644,0.96417 -0.5724,2.20686 -0.018,2.76154 0.9073,0.90731 0.5631,8.90271 -0.5891,13.68614 -2.9705,12.331334 -7.0502,18.953264 -13.5056,21.921644 -2.3204,1.067 -7.0846,3.52913 -10.587,5.4714 -7.0439,3.90615 -13.1045,6.26839 -17.8078,6.94094 -1.7013,0.24327 -6.6572,1.33312 -11.0132,2.42189 -10.2333,2.55783 -26.7917,5.41719 -34.3699,5.93513 -3.2763,0.22391 -10.9336,1.15794 -17.0163,2.07561 -10.3966,1.56848 -22.3767,2.81826 -30.0945,3.13952 -1.8669,0.0777 -8.0718,0.50936 -13.7889,0.95923 -14.035,1.10442 -45.7756,0.92669 -52.4167,-0.2935 -2.9568,-0.54328 -10.5456,-1.34875 -16.8639,-1.78992 -14.5719,-1.0175 -23.2182,-2.11632 -29.0648,-3.69374 -2.5396,-0.6852 -8.8357,-2.11872 -13.9913,-3.18562 -5.1557,-1.06691 -12.9508,-3.13594 -17.3225,-4.59784 -4.3717,-1.4619 -10.082,-3.0702 -12.6895,-3.57399 -7.0732,-1.36663 -14.9093,-4.01439 -20.0838,-6.78618 -2.5326,-1.35657 -6.9993,-3.57195 -9.9262,-4.92306 -5.5919,-2.58137 -11.7768,-8.22587 -17.3761,-15.85795 z m 24.8252,12.70117 c 3.9106,1.89564 8.1878,4.37387 9.5047,5.50718 1.317,1.13331 6.1305,3.00191 10.6968,4.15242 4.5664,1.15053 11.6856,3.16349 15.8205,4.47324 4.135,1.30976 9.1214,2.77576 11.0809,3.25779 12.5932,3.0978 22.1783,5.06642 25.6484,5.26777 2.2055,0.12797 5.8771,0.59299 8.159,1.03336 2.282,0.44039 8.623,1.09975 14.0911,1.46526 5.4682,0.3655 14.4362,1.26158 19.9291,1.99128 9.3898,1.24741 24.2213,1.19462 49.0936,-0.1747 5.8978,-0.3247 14.4557,-0.74489 19.0174,-0.93376 12.7858,-0.52935 18.7458,-1.22595 30.4291,-3.55644 5.9264,-1.18214 11.3705,-1.88423 12.098,-1.56021 0.7276,0.32403 4.4028,-0.0488 8.1672,-0.82858 3.7644,-0.77974 9.9226,-1.83967 13.6849,-2.35539 3.7623,-0.51572 10.2714,-1.96155 14.4647,-3.21296 4.1933,-1.25141 10.7595,-3.2064 14.5916,-4.34441 3.8321,-1.13801 10.8042,-4.03007 15.4936,-6.42678 11.9713,-6.11853 13.8791,-9.21489 15.5315,-25.207794 1.5375,-14.8804 -0.1807,-26.00449 -6.0062,-38.8857 -1.4676,-3.24532 -3.9636,-10.14487 -5.5465,-15.33233 -1.5829,-5.18747 -3.4759,-10.02965 -4.2067,-10.76041 -1.8264,-1.8264 -1.6642,-3.15856 0.4079,-3.35114 2.5587,-0.23781 2.5001,-3.03704 -0.1878,-8.96533 -3.8969,-8.59486 -7.4682,-20.66823 -8.5164,-28.79084 -0.5531,-4.28597 -1.2952,-8.08224 -1.6491,-8.43615 -0.3539,-0.35391 -0.6494,-2.46314 -0.6567,-4.68717 -0.024,-7.39879 -1.519,-23.64893 -2.7841,-30.2642 -0.6867,-3.59124 -1.5028,-7.86635 -1.8134,-9.50026 -1.1711,-6.15951 -1.8521,-17.34887 -2.5153,-41.32533 -0.2617,-9.46103 -1.0031,-21.76572 -1.6476,-27.34377 -0.7944,-6.87482 -0.6898,-10.85169 0.3245,-12.34529 1.3727,-2.02151 1.4076,-9.96129 0.064,-14.54163 -0.3065,-1.04479 -0.6246,-6.71909 -0.7068,-12.60956 -0.082,-5.89046 -0.413,-12.40905 -0.735,-14.48574 -0.8579,-5.53212 -1.4448,-10.43947 -1.8647,-15.59083 -0.2044,-2.50812 -0.9774,-8.17174 -1.7178,-12.58583 -3.7529,-22.37425 -5.102,-27.55949 -10.1103,-38.85947 -2.8664,-6.46737 -6.0781,-14.7108 -7.1371,-18.31873 -1.059,-3.60793 -3.4366,-9.82162 -5.2837,-13.8082 -3.2676,-7.05262 -3.7782,-8.1949 -6.235,-13.94887 -2.9999,-7.02574 -27.0417,-35.43855 -33.5292,-39.62502 -2.1273,-1.37283 -8.0511,-5.3132 -13.1639,-8.75638 -11.3047,-7.61305 -29.368,-17.83162 -35.6781,-20.18339 -8.6671,-3.23028 -32.2662,-7.00755 -41.6179,-6.66134 -2.9129,0.10783 -10.2709,0.33714 -16.3511,0.50957 -9.8687,0.27986 -12.5388,0.87236 -24.8837,5.52187 -18.3747,6.92052 -24.11,10.0031 -30.9357,16.6272 -6.7197,6.5212 -15.93,21.43846 -17.9929,29.14176 -2.7778,10.37276 -4.8686,21.53292 -5.2817,28.19185 -1.4435,23.26671 -2.0929,36.64197 -2.2239,45.80347 -0.082,5.72098 -0.4739,10.727 -0.8714,11.12449 -0.3975,0.39749 -0.702,2.77031 -0.6768,5.27293 0.076,7.50219 -0.6837,18.71496 -1.3101,19.34139 -1.2243,1.22424 -0.6363,41.33673 0.7048,48.0855 1.1116,5.59337 2.7111,33.35134 1.965,34.09752 -0.2847,0.28463 -0.7604,3.14683 -1.0571,6.36042 -1.6538,17.90705 -7.4292,47.86361 -12.2144,63.35443 -1.5366,4.97459 -1.7837,5.86157 -5.1382,18.44143 -4.5105,16.91506 -5.2427,20.68978 -4.3646,22.50073 0.4171,0.86038 0.201,2.91002 -0.4803,4.55476 -0.6812,1.64475 -1.1106,3.58066 -0.9542,4.30205 0.3002,1.38412 -1.5291,10.87587 -2.2314,11.57816 -0.2261,0.22613 -0.756,2.98339 -1.1775,6.12725 -0.4215,3.14387 -1.0354,5.9851 -1.3641,6.31385 -0.3288,0.32876 -1.9928,5.41442 -3.698,11.30149 -1.7051,5.88706 -3.6569,11.73806 -4.3372,13.00222 -2.8763,5.34407 -6.4741,17.38123 -7.0552,23.60398 -0.6402,6.85692 0.8626,21.10987 2.9399,27.88241 4.0079,13.066564 12.0609,22.587304 24.0007,28.374904 z m 146.5049,-69.634644 c 0.3745,-0.84076 5.7181,-3.58859 11.8748,-6.10629 6.1567,-2.5177 14.2634,-6.0294 18.015,-7.80377 3.7516,-1.77437 7.4799,-3.29813 8.2852,-3.38613 0.8053,-0.088 2.4989,-1.25818 3.7636,-2.60038 1.2647,-1.3422 5.0581,-4.24655 8.4299,-6.45409 3.3718,-2.20755 7.0224,-4.92091 8.1125,-6.02968 1.0901,-1.10876 4.5262,-3.89699 7.6358,-6.19601 3.1097,-2.29903 5.7288,-4.77109 5.8203,-5.49347 0.091,-0.72238 1.7537,-4.04748 3.694,-7.3891 2.7879,-4.8016 3.8892,-6.07279 5.2518,-6.06185 1.3532,0.0109 1.6671,0.81064 1.4588,3.71638 -0.146,2.0364 -0.778,4.26817 -1.4045,4.95948 -1.7886,1.97369 -3.3747,4.20471 -5.7846,8.13654 -1.2607,2.057 -2.908,3.79035 -3.79,3.98812 -1.9929,0.44682 -6.4061,4.83573 -6.848,6.81036 -0.186,0.83093 -3.1758,3.5687 -6.644,6.08393 -3.4682,2.51523 -6.3173,4.81658 -6.3313,5.11412 -0.014,0.29752 2.5193,2.30218 5.6296,4.45478 3.1102,2.15261 7.5774,5.49156 9.927,7.41991 2.3497,1.92834 4.8329,3.58174 5.5182,3.67422 1.1439,0.15437 6.3207,3.05864 8.1536,4.57429 0.4258,0.35207 2.0511,1.43143 3.6119,2.39858 2.4768,1.53482 3.1276,1.46857 5.117,-0.52086 2.7272,-2.72722 7.865,-17.40139 8.1451,-23.26354 0.2481,-5.19292 -0.7087,-12.39343 -2.6378,-19.85066 -1.3887,-5.36807 -5.892,-12.80295 -11.9539,-19.73565 -3.5384,-4.04668 -1.0886,-5.54227 3.115,-1.90168 6.7624,5.85675 13.7782,16.00887 15.619,22.60151 2.7424,9.8212 3.0155,16.82868 0.9068,23.26656 -1.0679,3.26041 -2.1904,8.14212 -2.4945,10.84826 -0.8482,7.5489 -6.5248,16.11046 -10.4405,15.74654 -2.4804,-0.23053 -13.2358,-5.78371 -14.423,-7.44675 -0.5416,-0.75873 -2.3326,-1.94083 -3.98,-2.6269 -1.6473,-0.68608 -8.0044,-4.81019 -14.1267,-9.16469 l -11.1316,-7.91727 -3.2866,1.62183 c -1.8076,0.89202 -4.8849,2.56917 -6.8383,3.72703 -9.1456,5.421 -26.5023,13.62759 -30.0016,14.18542 -3.4404,0.54844 -6.8559,-1.3854 -5.968,-3.37907 z m -92.0581,-106.76009 c -2.4763,-5.7918 0.185,-28.58622 4.4898,-38.45465 2.6673,-6.11472 7.9769,-12.97239 9.142,-11.80732 1.1841,1.1841 2.1896,-0.33743 2.1896,-3.31343 0,-1.50517 -1.3488,-4.45353 -3.085,-6.7434 -6.9442,-9.15902 -0.2559,-9.47923 8.8019,-0.4214 4.6647,4.66468 8.1763,7.43438 20.2784,15.99434 2.3843,1.68649 6.9883,4.0541 10.2311,5.26137 5.6357,2.09817 5.8806,2.2931 5.5507,4.41811 -0.2218,1.42832 0.4312,2.85203 1.8265,3.98236 1.842,1.49225 2.1854,4.14043 2.2628,17.44606 0.058,9.90551 -0.5635,17.68656 -1.6852,21.11296 -1.4173,4.32925 -1.4212,5.70007 -0.02,6.781 5.1437,3.96691 0.1782,6.46642 -10.8204,5.4467 -3.5591,-0.32998 -7.6756,-0.47488 -9.1478,-0.32199 -2.8906,0.3002 -13.6077,-3.44029 -18.6334,-6.50342 -1.7056,-1.0396 -5.1792,-3.63052 -7.719,-5.75761 -6.8027,-5.69716 -8.0782,-6.35645 -10.0569,-5.19811 -1.8881,1.10533 -2.4361,0.81328 -3.6054,-1.92157 z m 18.611,4.99937 c 7.8962,6.6112 20.9355,11.25577 30.6901,10.93183 3.0732,-0.10207 3.5349,-0.37826 3.3986,-2.03328 -0.087,-1.05334 0.5714,-5.64085 1.4625,-10.19445 3.174,-16.21916 1.7162,-31.5178 -3.5003,-36.73435 -1.5726,-1.57255 -10.7486,-6.71643 -16.8972,-9.47218 -2.6405,-1.18344 -2.7818,-1.12582 -2.3872,0.97295 0.2307,1.22697 0.7323,4.00517 1.1147,6.17378 0.3863,2.19068 -0.1698,6.43212 -1.2514,9.54417 -2.4845,7.14869 -5.4791,9.41935 -17.9699,13.62561 -5.9886,2.01668 -9.0874,3.52157 -8.8057,4.27654 0.3883,1.04103 5.0304,5.2774 14.1458,12.90938 z m 0.4629,-49.90646 c 0.6681,-0.15771 2.27,0.18714 3.5598,0.76634 1.4104,0.63337 2.9157,0.48247 3.7768,-0.37863 1.1262,-1.12621 0.9691,-1.89428 -0.7361,-3.59952 -3.0317,-3.03165 -6.0824,-3.72416 -7.9923,-1.81425 -0.8938,0.89377 -1.625,2.0493 -1.625,2.56785 0,1.43295 1.6533,2.7801 3.0168,2.45821 z m -35.7697,-69.66567 c 0.7627,-2.51882 0.7612,-8.61103 -0.01,-38.30824 -0.8447,-32.5602 -1.1342,-39.1606 -1.7446,-39.77098 -0.8265,-0.82658 -0.3086,-13.58821 0.993,-24.46292 0.6235,-5.21007 1.5368,-12.82568 2.0295,-16.92358 0.8902,-7.40496 2.3947,-12.25305 5.3916,-17.37457 9.7571,-16.67414 10.8221,-18.18385 17.8419,-25.29159 14.9266,-15.11357 24.4834,-18.07822 63.2182,-19.6112 5.753,-0.22768 12.4166,0.29488 15.0809,1.18263 2.6253,0.87481 6.6932,2.21628 9.0397,2.98106 13.7613,4.48509 16.4714,5.88922 23.2211,12.03098 3.6823,3.35067 10.0461,8.45224 14.1418,11.33683 11.6746,8.22247 19.4827,16.5063 24.3992,25.88591 2.2737,4.33775 5.0784,9.48797 6.2327,11.44494 1.1543,1.95696 3.1777,6.4852 4.4964,10.06275 1.3188,3.57755 2.546,6.65291 2.7272,6.83415 0.4872,0.48711 4.0243,9.69802 4.4907,11.69389 0.221,0.94573 1.1414,3.71382 2.0454,6.15131 0.904,2.43749 1.8926,6.28189 2.197,8.54311 0.3044,2.26122 0.7005,4.25841 0.8803,4.4382 0.4875,0.48753 7.5728,29.14143 8.641,34.94578 0.5088,2.76424 1.1972,7.52542 1.5298,10.5804 0.3326,3.05497 0.9859,8.16304 1.4518,11.35126 0.9504,6.50479 1.0077,7.96144 0.6237,15.86898 -0.2924,6.01981 -1.5657,8.21655 -4.1067,7.08489 -1.0697,-0.4764 -1.4374,-1.80659 -1.0974,-3.97026 0.2811,-1.78961 0.109,-3.65599 -0.3825,-4.14751 -1.1551,-1.15503 -13.1364,2.60615 -26.0478,8.17692 -5.7804,2.49399 -15.0785,5.37995 -21.5271,6.6816 -6.2434,1.26024 -12.5025,2.80816 -13.9092,3.43983 -6.6965,3.00719 -28.2826,5.87499 -39.2992,5.22106 -15.2902,-0.90758 -16.9841,-1.08719 -22.2937,-2.36383 -2.5082,-0.60307 -7.8747,-1.52699 -11.9255,-2.05315 -12.1088,-1.57285 -23.3037,-3.52556 -25.7114,-4.48482 -2.7987,-1.11506 -8.3604,-2.9308 -16.6036,-5.42059 -3.4707,-1.0483 -6.6123,-2.20792 -6.9813,-2.57693 -0.369,-0.36903 -2.9433,-1.03414 -5.7206,-1.47803 -2.7774,-0.4439 -5.569,-1.30607 -6.2036,-1.91594 -0.6346,-0.60986 -2.2387,-1.25933 -3.5646,-1.44327 -3.2955,-0.45714 -4.335,-1.7295 -3.5449,-4.33907 z m 11.4384,-3.01523 c 7.9818,-5.20433 16.1236,-8.84292 22.3728,-9.99852 3.358,-0.62095 9.2738,-2.12617 13.1463,-3.34491 7.9784,-2.51095 13.4919,-3.46844 28.0319,-4.86802 5.5943,-0.5385 13.2685,-1.5306 17.0539,-2.20468 8.8667,-1.57895 34.7785,-2.50186 41.0604,-1.46246 2.6696,0.44169 8.9336,2.22767 13.92,3.96884 4.9865,1.74116 10.7318,3.3144 12.7674,3.4961 2.0356,0.18169 5.6303,0.94669 7.9883,1.7 2.358,0.75332 6.4049,1.4493 8.9931,1.54665 8.1493,0.30647 22.345,2.62397 23.5687,3.84767 0.6868,0.68677 0.6107,1.73827 -0.1832,2.53213 -0.9011,0.90112 -6.0867,0.7086 -15.4218,-0.57257 -7.7353,-1.0616 -14.2972,-2.16327 -14.5821,-2.44814 -0.2848,-0.28487 -1.2237,-0.58076 -2.0864,-0.65755 -4.1959,-0.37351 -19.7271,-4.28317 -26.1959,-6.59433 -6.133,-2.19119 -10.1851,-2.56632 -25.8876,-2.39664 -10.2391,0.11064 -21.5524,0.90967 -25.1407,1.77562 -3.5883,0.86594 -9.7108,1.65234 -13.6055,1.74755 -7.0753,0.17295 -8.3601,0.35029 -21.4125,2.95545 -21.0409,4.19961 -28.2143,6.00052 -31.4789,7.90288 -1.9912,1.16033 -5.5898,2.86198 -7.9969,3.78145 -4.6859,1.78997 -6.8304,3.3848 -5.8584,4.35683 1.6867,1.68667 8.058,3.99429 16.766,6.07245 5.3377,1.27382 11.3562,2.99905 13.3747,3.83382 3.2257,1.33412 14.9156,3.25479 27.3203,4.4888 2.2361,0.22244 6.2227,1.00877 8.8592,1.74741 11.2924,3.1636 30.1162,4.1817 42.7372,2.31145 15.6339,-2.31673 16.3704,-2.45952 21.2432,-4.11885 2.6111,-0.88913 6.8078,-1.87518 9.326,-2.1912 2.5183,-0.31604 4.7575,-0.75347 4.9762,-0.97207 0.2186,-0.2186 2.8482,-1.03015 5.8436,-1.80345 2.9954,-0.7733 7.0865,-2.23228 9.0914,-3.24219 2.0049,-1.00991 9.3236,-3.75266 16.2638,-6.095 17.9508,-6.05848 17.3005,-5.38886 16.5852,-17.07745 -0.8057,-13.16639 -1.9208,-19.15903 -8.1451,-43.77484 -7.714,-30.50725 -11.956,-41.54774 -24.582,-63.97927 -5.6107,-9.96793 -6.8335,-11.55213 -14.9086,-19.31388 -4.8381,-4.65041 -12.4728,-11.17137 -16.9659,-14.49103 -4.4931,-3.31966 -9.2294,-7.09581 -10.525,-8.39143 -3.6012,-3.60122 -15.2608,-8.94007 -23.2833,-10.66128 -11.1217,-2.38616 -15.3329,-2.68591 -28.0361,-1.99563 -14.5214,0.78907 -29.2156,3.83822 -35.9103,7.45161 -7.2558,3.91629 -18.8297,15.83148 -22.9955,23.67354 -1.7539,3.30184 -3.8214,7.00343 -4.5943,8.22575 -3.1841,5.03534 -7.2272,18.16605 -7.3423,23.84543 -0.068,3.3405 -0.6613,11.01448 -1.3192,17.05329 -0.6578,6.03881 -0.7745,13.54882 -0.2594,16.68891 1.1731,7.15109 1.0001,72.84997 -0.195,74.04506 -1.0134,1.01338 -0.4569,2.68109 1.6515,4.94884 1.2437,1.33779 2.1852,1.12616 5.9708,-1.34214 z m 122.0348,134.54172 c -5.1173,-7.63354 -5.5327,-11.21365 -3.3936,-29.24428 0.9266,-7.81066 0.7898,-9.17121 -0.9759,-9.70584 -2.3678,-0.7169 -3.6852,-3.01185 -2.4424,-4.25461 0.4677,-0.46773 1.9807,-0.90678 3.3622,-0.97568 1.3815,-0.0689 4.0317,-1.28721 5.8893,-2.70733 2.4868,-1.90112 3.9836,-2.34559 5.6757,-1.6854 1.264,0.49317 3.1313,0.45125 4.1495,-0.0931 1.0182,-0.54438 2.7143,-1.08136 3.7691,-1.19326 6.0577,-0.64267 20.8207,-10.95452 22.1986,-15.50556 0.7982,-2.63616 4.1568,-4.80809 5.4443,-3.52064 0.5089,0.50887 0.3602,2.96976 -0.3303,5.46866 -1.3255,4.7966 -0.9373,5.90569 7.0847,20.24487 4.3102,7.7043 6.1614,13.88426 6.1623,20.5717 4e-4,3.1857 0.3221,7.50145 0.7149,9.59054 0.3928,2.0891 0.2202,4.71971 -0.3836,5.8458 -0.6038,1.12609 -1.1533,3.72868 -1.2211,5.78354 -0.1181,3.57899 -0.2903,3.82312 -4.0942,5.80532 -2.184,1.13808 -4.8205,2.17413 -5.859,2.30234 -1.0386,0.12822 -2.5358,0.54017 -3.3272,0.91546 -3.0697,1.45556 -16.6593,2.90239 -22.1463,2.35782 -3.1717,-0.31479 -6.4255,-1.2311 -7.2306,-2.03625 -0.8052,-0.80515 -3.2048,-1.61381 -5.3326,-1.79701 -2.1277,-0.18322 -3.9506,-0.47745 -4.0508,-0.65387 -0.1002,-0.17642 -1.7486,-2.65735 -3.663,-5.51318 z m 21.2178,5.37429 c 7.3179,0.14053 21.9311,-2.37332 23.6212,-4.06346 2.4295,-2.42943 5.738,-14.42483 5.8437,-21.18656 0.093,-5.93554 -4.2248,-22.18725 -6.4985,-24.46095 -0.3945,-0.39452 -0.6361,-1.59073 -0.5369,-2.65824 0.1039,-1.11849 -0.9888,-3.11016 -2.579,-4.70028 -2.9549,-2.9549 -4.8139,-2.70796 -10.6112,1.40955 -1.3644,0.96905 -3.5099,2.12169 -4.7678,2.56144 -3.2373,1.13172 -3.9811,3.53894 -1.7751,5.74493 2.6856,2.68555 2.3748,14.68967 -0.49,18.92914 -2.8571,4.228 -8.1975,9.61138 -13.3303,13.43769 -4.0523,3.0209 -4.1432,3.19903 -2.9731,5.82994 0.6638,1.49262 2.8449,4.13928 4.847,5.88147 3.0267,2.63385 4.5854,3.18578 9.25,3.27535 z m -2.6728,-47.06591 c 0.3889,-0.38891 0.3889,-1.0253 0,-1.41421 -0.3889,-0.38891 -1.0253,-0.38891 -1.4142,0 -0.3889,0.38891 -0.3889,1.0253 0,1.41421 0.3889,0.38891 1.0253,0.38891 1.4142,0 z m -201.6689,85.87605 c 0.4435,-1.67607 0.3361,-1.8446 -0.6011,-0.94281 -1.2136,1.16799 -1.5423,2.9837 -0.54,2.9837 0.3306,0 0.844,-0.91842 1.1411,-2.04089 z"
       style="fill:#a5a5a5" />
    <path
       style="fill:#a5a5a5"
       d="m 180.69514,729.51458 c -3.685,-5.02286 -4.997,-7.9757 -6.3959,-14.39494 -0.5983,-2.74527 -1.5301,-6.51452 -2.0708,-8.37611 -0.5406,-1.86158 -0.9861,-5.23444 -0.99,-7.49525 0,-2.26081 -0.1884,-4.88567 -0.41,-5.83303 -0.4179,-1.78645 1.0795,-10.97492 1.9266,-11.82203 0.265,-0.26493 1.0785,-2.9877 1.808,-6.05061 3.42883,-9.54945 6.99237,-18.63261 9.1097,-28.56454 6.18087,-23.67117 12.35999,-50.04181 19.757,-73.60194 0.4123,-1.14326 0.683,-3.35774 0.6014,-4.92106 -0.082,-1.56331 0.3341,-3.32486 0.9238,-3.91455 0.5897,-0.5897 1.1539,-1.9952 1.2537,-3.12337 0.2292,-2.59095 4.2339,-19.33477 4.7471,-19.84797 1.2309,-1.23091 5.7078,-29.21474 6.8631,-42.89931 1.0208,-12.09048 1.4274,-31.44638 0.7218,-34.35404 -0.4492,-1.85113 -0.8599,-5.32064 -0.9127,-7.71004 -0.053,-2.3894 -0.4829,-5.62233 -0.9559,-7.18428 -1.0957,-3.61871 -1.5811,-8.5246 -1.5661,-15.83049 0.019,-9.43401 0.7121,-21.33497 1.2746,-21.89745 0.7265,-0.72651 1.8292,-20.01213 2.1428,-37.47711 0.387,-21.54806 1.4068,-40.64399 2.3707,-44.3904 0.4672,-1.81565 0.6109,-3.53973 0.3193,-3.83128 -0.2915,-0.29154 0.2622,-4.35171 1.2305,-9.02258 3.4679,-16.72813 4.6485,-19.76762 12.508,-32.2002 9.7843,-15.47744 17.9096,-21.67737 37.8103,-28.85082 3.7163,-1.33957 9.9716,-3.64069 13.9008,-5.1136 3.9292,-1.47291 9.9618,-2.82024 13.4058,-2.99407 3.4439,-0.17383 11.5718,-0.57118 18.0619,-0.883 6.4901,-0.31183 15.289,0.11706 19.553,0.95308 4.2641,0.83601 10.9831,2.10814 14.9312,2.82696 7.2904,1.32733 14.5703,4.06615 24.6626,9.27848 12.022,6.20892 18.2341,9.78712 19.9223,11.4753 0.9687,0.96867 3.8403,2.96204 6.3815,4.4297 10.727,6.19552 23.1148,16.22098 23.8402,19.29399 0.1154,0.48852 3.6297,4.42946 7.8097,8.75764 5.6767,5.87793 8.452,9.52263 10.9667,14.40222 1.8517,3.59305 4.5787,8.82097 6.0601,11.6176 1.4814,2.79662 4.009,8.86035 5.6169,13.47494 4.3583,12.50762 7.9775,21.82043 11.8738,30.55263 1.9198,4.3027 3.5879,8.68042 3.7068,9.72826 0.1189,1.04784 1.1574,4.68245 2.3078,8.07692 1.1504,3.39446 1.9361,7.47324 1.7461,9.06396 -0.19,1.59072 -0.076,3.1671 0.2544,3.50307 0.3299,0.33598 0.8769,4.86048 1.2156,10.05447 0.3387,5.19398 1.047,12.42032 1.5739,16.05853 0.5269,3.6382 1.0685,9.70682 1.2035,13.4858 4.28101,18.08937 0.53846,36.59443 1.143,53.81835 0.6926,3.42673 1.0125,11.48535 0.7109,17.90803 -0.6033,12.84993 1.3378,37.13882 4.3494,54.42362 1.0668,6.12259 2.3467,15.56188 2.8442,20.97622 0.4975,5.41433 1.2697,11.07007 1.716,12.56831 0.4463,1.49824 0.9022,6.02272 1.013,10.05441 0.1329,4.83062 1.3856,10.57074 3.6734,16.83269 5.9348,16.24339 11.4478,33.9121 11.5651,37.06496 0.1147,3.08098 0.9708,6.95514 2.1214,9.59895 0.3537,0.81295 1.083,2.83996 1.6205,4.50445 0.5375,1.6645 1.5635,3.61256 2.28,4.32902 0.7165,0.71646 1.4503,2.9539 1.6308,4.97209 0.1805,2.01818 1.1142,6.47422 2.075,9.90229 0.9607,3.42807 1.2849,7.02172 0.7205,7.98589 -0.5644,0.96417 -0.5724,2.20686 -0.018,2.76154 0.9073,0.90731 0.5631,8.90271 -0.5891,13.68614 -2.9705,12.33133 -7.0502,18.95326 -13.5056,21.92164 -2.3204,1.067 -7.0846,3.52913 -10.587,5.4714 -7.0439,3.90615 -13.1045,6.26839 -17.8078,6.94094 -1.7013,0.24327 -6.6572,1.33312 -11.0132,2.42189 -10.2333,2.55783 -26.7917,5.41719 -34.3699,5.93513 -3.2763,0.22391 -10.9336,1.15794 -17.0163,2.07561 -10.3966,1.56848 -22.3767,2.81826 -30.0945,3.13952 -1.8669,0.0777 -8.0718,0.50936 -13.7889,0.95923 -14.035,1.10442 -45.7756,0.92669 -52.4167,-0.2935 -2.9568,-0.54328 -10.5456,-1.34875 -16.8639,-1.78992 -14.5719,-1.0175 -23.2182,-2.11632 -29.0648,-3.69374 -2.5396,-0.6852 -8.8357,-2.11872 -13.9913,-3.18562 -5.1557,-1.06691 -12.9508,-3.13594 -17.3225,-4.59784 -4.3717,-1.4619 -10.082,-3.0702 -12.6895,-3.57399 -7.0732,-1.36663 -14.9093,-4.01439 -20.0838,-6.78618 -2.5326,-1.35657 -6.9993,-3.57195 -9.9262,-4.92306 -5.5919,-2.58137 -11.7768,-8.22587 -17.3761,-15.85795 l 3e-4,0 z m 24.8252,12.70117 c 3.9106,1.89564 8.1878,4.37387 9.5047,5.50718 1.317,1.13331 6.1305,3.00191 10.6968,4.15242 4.5664,1.15053 11.6856,3.16349 15.8205,4.47324 4.135,1.30976 9.1214,2.77576 11.0809,3.25779 12.5932,3.0978 22.1783,5.06642 25.6484,5.26777 2.2055,0.12797 5.8771,0.59299 8.159,1.03336 2.282,0.44039 8.623,1.09975 14.0911,1.46526 5.4682,0.3655 14.4362,1.26158 19.9291,1.99128 9.3898,1.24741 24.2213,1.19462 49.0936,-0.1747 5.8978,-0.3247 14.4557,-0.74489 19.0174,-0.93376 12.7858,-0.52935 18.7458,-1.22595 30.4291,-3.55644 5.9264,-1.18214 11.3705,-1.88423 12.098,-1.56021 0.7276,0.32403 4.4028,-0.0488 8.1672,-0.82858 3.7644,-0.77974 9.9226,-1.83967 13.6849,-2.35539 3.7623,-0.51572 10.2714,-1.96155 14.4647,-3.21296 4.1933,-1.25141 10.7595,-3.2064 14.5916,-4.34441 3.8321,-1.13801 10.8042,-4.03007 15.4936,-6.42678 11.9713,-6.11853 13.8791,-9.21489 15.5315,-25.20779 1.5375,-14.8804 -0.1807,-26.00449 -6.0062,-38.8857 -1.4676,-3.24532 -3.9636,-10.14487 -5.5465,-15.33233 -1.5829,-5.18747 -3.4759,-10.02965 -4.2067,-10.76041 -1.8264,-1.8264 -1.6642,-3.15856 0.4079,-3.35114 2.5587,-0.23781 2.5001,-3.03704 -0.1878,-8.96533 -3.8969,-8.59486 -7.4682,-20.66823 -8.5164,-28.79084 -0.5531,-4.28597 -1.2952,-8.08224 -1.6491,-8.43615 -0.3539,-0.35391 -0.6494,-2.46314 -0.6567,-4.68717 -0.024,-7.39879 -1.519,-23.64893 -2.7841,-30.2642 -0.6867,-3.59124 -1.5028,-7.86635 -1.8134,-9.50026 -1.1711,-6.15951 -1.8521,-17.34887 -2.5153,-41.32533 -0.2617,-9.46103 -1.0031,-21.76572 -1.6476,-27.34377 1.18945,-13.27938 -0.0252,-26.0404 -0.3183,-39.49648 -0.082,-5.89047 -0.413,-12.40905 -0.735,-14.48575 -0.8579,-5.53212 -1.4448,-10.43947 -1.8647,-15.59082 -0.2044,-2.50813 -0.9774,-8.17174 -1.7178,-12.58583 -3.7529,-22.37426 -5.102,-27.55949 -10.1103,-38.85947 -2.8664,-6.46738 -6.0781,-14.7108 -7.1371,-18.31873 -1.059,-3.60793 -3.4366,-9.82162 -5.2837,-13.8082 -3.2676,-7.05263 -3.7782,-8.1949 -6.235,-13.94888 -2.9999,-7.02573 -27.0417,-35.43854 -33.5292,-39.62501 -2.1273,-1.37283 -8.0511,-5.3132 -13.1639,-8.75638 -11.3047,-7.61305 -29.368,-17.83162 -35.6781,-20.18339 -8.6671,-3.23028 -32.2662,-7.00755 -41.6179,-6.66134 -2.9129,0.10783 -10.2709,0.33714 -16.3511,0.50957 -9.8687,0.27986 -12.5388,0.87236 -24.8837,5.52187 -18.3747,6.92052 -24.11,10.0031 -30.9357,16.6272 -6.7197,6.5212 -15.93,21.43846 -17.9929,29.14176 -2.7778,10.37276 -4.8686,21.53292 -5.2817,28.19185 -1.4435,23.26671 -2.0929,36.64196 -2.2239,45.80347 -0.082,5.72098 -0.4739,10.727 -0.8714,11.12449 -0.3975,0.39749 -0.702,2.77031 -0.6768,5.27293 0.076,7.50218 -0.6837,18.71496 -1.3101,19.34139 -1.2243,1.22423 -0.6363,41.33673 0.7048,48.0855 1.1116,5.59337 2.7111,33.35134 1.965,34.09752 -0.2847,0.28463 -0.7604,3.14683 -1.0571,6.36042 -1.6538,17.90705 -7.4292,47.86361 -12.2144,63.35443 -9.18173,40.83288 -20.3355,81.15465 -30.8007,121.72592 -0.6402,6.85692 0.8626,21.10987 2.9399,27.88241 4.0079,13.06656 12.0609,22.5873 24.0007,28.3749 l -1e-4,0 z m 146.5049,-69.63464 c 0.3745,-0.84076 5.7181,-3.58859 11.8748,-6.10629 6.1567,-2.5177 14.2634,-6.0294 18.015,-7.80377 3.7516,-1.77437 7.4799,-3.29813 8.2852,-3.38613 0.8053,-0.088 2.4989,-1.25818 3.7636,-2.60038 1.2647,-1.3422 5.0581,-4.24655 8.4299,-6.45409 3.3718,-2.20755 7.0224,-4.92091 8.1125,-6.02968 1.0901,-1.10876 4.5262,-3.89699 7.6358,-6.19601 3.1097,-2.29903 5.7288,-4.77109 5.8203,-5.49347 0.091,-0.72238 1.7537,-4.04748 3.694,-7.3891 2.7879,-4.8016 3.8892,-6.07279 5.2518,-6.06185 1.3532,0.0109 1.6671,0.81064 1.4588,3.71638 -0.146,2.0364 -0.778,4.26817 -1.4045,4.95948 -1.7886,1.97369 -3.3747,4.20471 -5.7846,8.13654 -1.2607,2.057 -2.908,3.79035 -3.79,3.98812 -1.9929,0.44682 -6.4061,4.83573 -6.848,6.81036 -0.186,0.83093 -3.1758,3.5687 -6.644,6.08393 -3.4682,2.51523 -6.3173,4.81658 -6.3313,5.11412 -0.014,0.29752 2.5193,2.30218 5.6296,4.45478 3.1102,2.15261 7.5774,5.49156 9.927,7.41991 2.3497,1.92834 4.8329,3.58174 5.5182,3.67422 1.1439,0.15437 6.3207,3.05864 8.1536,4.57429 0.4258,0.35207 2.0511,1.43143 3.6119,2.39858 2.4768,1.53482 3.1276,1.46857 5.117,-0.52086 2.7272,-2.72722 7.865,-17.40139 8.1451,-23.26354 0.2481,-5.19292 -0.7087,-12.39343 -2.6378,-19.85066 -1.3887,-5.36807 -6.99588,-7.37554 -13.05778,-14.30824 -3.5384,-4.04668 -0.35268,-6.00222 3.85092,-2.36163 6.7624,5.85675 14.14616,11.04141 15.98696,17.63405 2.7424,9.8212 3.0155,16.82868 0.9068,23.26656 -1.0679,3.26041 -2.1904,8.14212 -2.4945,10.84826 -0.8482,7.5489 -6.5248,16.11046 -10.4405,15.74654 -2.4804,-0.23053 -13.2358,-5.78371 -14.423,-7.44675 -0.5416,-0.75873 -2.3326,-1.94083 -3.98,-2.6269 -1.6473,-0.68608 -8.0044,-4.81019 -14.1267,-9.16469 l -11.1316,-7.91727 -3.2866,1.62183 c -1.8076,0.89202 -4.8849,2.56917 -6.8383,3.72703 -9.1456,5.421 -26.5023,13.62759 -30.0016,14.18542 -3.4404,0.54844 -6.8559,-1.3854 -5.968,-3.37907 l 0,-2e-5 z m -92.0581,-106.76009 c -2.4763,-5.7918 0.185,-28.58622 4.4898,-38.45465 2.6673,-6.11472 7.9769,-12.97239 9.142,-11.80732 1.1841,1.1841 2.1896,-0.33743 2.1896,-3.31343 0,-1.50517 -1.3488,-4.45353 -3.085,-6.7434 -6.9442,-9.15902 -0.2559,-9.47923 8.8019,-0.4214 4.6647,4.66468 8.1763,7.43438 20.2784,15.99434 2.3843,1.68649 6.9883,4.0541 10.2311,5.26137 5.6357,2.09817 5.8806,2.2931 5.5507,4.41811 -0.2218,1.42832 0.4312,2.85203 1.8265,3.98236 1.842,1.49225 2.1854,4.14043 2.2628,17.44606 0.058,9.90551 -0.5635,17.68656 -1.6852,21.11296 -1.4173,4.32925 -1.4212,5.70007 -0.02,6.781 5.1437,3.96691 0.1782,6.46642 -10.8204,5.4467 -3.5591,-0.32998 -7.6756,-0.47488 -9.1478,-0.32199 -2.8906,0.3002 -13.6077,-3.44029 -18.6334,-6.50342 -1.7056,-1.0396 -5.1792,-3.63052 -7.719,-5.75761 -6.8027,-5.69716 -8.0782,-6.35645 -10.0569,-5.19811 -1.8881,1.10533 -2.4361,0.81328 -3.6054,-1.92157 l 3e-4,0 z m 18.611,4.99937 c 7.8962,6.6112 20.9355,11.25577 30.6901,10.93183 3.0732,-0.10207 3.5349,-0.37826 3.3986,-2.03328 -0.087,-1.05334 0.5714,-5.64085 1.4625,-10.19445 3.174,-16.21916 1.7162,-31.5178 -3.5003,-36.73435 -1.5726,-1.57255 -10.7486,-6.71643 -16.8972,-9.47218 -2.6405,-1.18344 -2.7818,-1.12582 -2.3872,0.97295 0.2307,1.22697 0.7323,4.00517 1.1147,6.17378 0.3863,2.19068 -0.1698,6.43212 -1.2514,9.54417 -2.4845,7.14869 -5.4791,9.41935 -17.9699,13.62561 -5.9886,2.01668 -9.0874,3.52157 -8.8057,4.27654 0.3883,1.04103 5.0304,5.2774 14.1458,12.90938 z m -35.3068,-119.57213 c 0.7627,-2.51883 0.7612,-8.61103 -0.01,-38.30824 -0.8447,-32.56021 -1.1342,-39.1606 -1.7446,-39.77098 -0.8265,-0.82658 -0.3086,-13.58821 0.993,-24.46292 0.6235,-5.21007 1.5368,-12.82568 2.0295,-16.92359 0.8902,-7.40495 2.3947,-12.25304 5.3916,-17.37457 9.7571,-16.67413 10.8221,-18.18384 17.8419,-25.29158 14.9266,-15.11357 24.4834,-18.07822 63.2182,-19.6112 5.753,-0.22768 12.4166,0.29488 15.0809,1.18263 2.6253,0.87481 6.6932,2.21628 9.0397,2.98106 13.7613,4.48509 16.4714,5.88922 23.2211,12.03098 3.6823,3.35067 10.0461,8.45224 14.1418,11.33683 11.6746,8.22247 19.4827,16.50629 24.3992,25.88591 2.2737,4.33775 5.0784,9.48797 6.2327,11.44493 1.1543,1.95697 3.1777,6.48521 4.4964,10.06275 1.3188,3.57756 2.546,6.65292 2.7272,6.83415 0.4872,0.48712 4.0243,9.69802 4.4907,11.6939 0.221,0.94573 1.1414,3.71382 2.0454,6.15131 0.904,2.43748 1.8926,6.28189 2.197,8.54311 0.3044,2.26122 0.7005,4.25841 0.8803,4.4382 0.4875,0.48753 7.5728,29.14143 8.641,34.94578 0.5088,2.76424 1.1972,7.52542 1.5298,10.58039 0.3326,3.05498 0.9859,8.16305 1.4518,11.35127 0.9504,6.50479 1.0077,7.96144 0.6237,15.86898 -0.2924,6.01981 -1.5657,8.21654 -4.1067,7.08488 -1.0697,-0.4764 -1.4374,-1.80658 -1.0974,-3.97025 0.2811,-1.78961 0.109,-3.65599 -0.3825,-4.14751 -1.1551,-1.15503 -13.1364,2.60615 -26.0478,8.17692 -5.7804,2.49399 -15.0785,5.37995 -21.5271,6.6816 -6.2434,1.26024 -12.5025,2.80816 -13.9092,3.43983 -6.6965,3.00719 -28.2826,5.87499 -39.2992,5.22106 -15.2902,-0.90758 -16.9841,-1.08719 -22.2937,-2.36383 -2.5082,-0.60307 -7.8747,-1.52699 -11.9255,-2.05315 -12.1088,-1.57285 -23.3037,-3.52556 -25.7114,-4.48482 -2.7987,-1.11507 -8.3604,-2.9308 -16.6036,-5.4206 -3.4707,-1.04829 -6.6123,-2.20791 -6.9813,-2.57693 -0.369,-0.36902 -2.9433,-1.03413 -5.7206,-1.47803 -2.7774,-0.44389 -5.569,-1.30606 -6.2036,-1.91593 -0.6346,-0.60987 -2.2387,-1.25934 -3.5646,-1.44327 -3.2955,-0.45714 -4.335,-1.7295 -3.5449,-4.33907 l 8e-4,0 z m 11.4384,-3.01523 c 7.9818,-5.20433 16.1236,-8.84292 22.3728,-9.99852 3.358,-0.62096 9.2738,-2.12617 13.1463,-3.34491 7.9784,-2.51096 13.4919,-3.46844 28.0319,-4.86803 5.5943,-0.53849 13.2685,-1.53059 17.0539,-2.20467 8.8667,-1.57895 34.7785,-2.50186 41.0604,-1.46247 2.6696,0.4417 8.9336,2.22768 13.92,3.96885 4.9865,1.74116 10.7318,3.3144 12.7674,3.49609 2.0356,0.18169 5.6303,0.9467 7.9883,1.70001 2.358,0.75331 6.4049,1.4493 8.9931,1.54665 8.1493,0.30647 25.7225,3.62398 26.67775,4.57921 0.95525,0.95524 0.6107,1.55538 -0.1832,2.34925 -0.9011,0.90112 -9.19575,0.15994 -18.53085,-1.12123 -7.7353,-1.0616 -14.2972,-2.16327 -14.5821,-2.44814 -0.2848,-0.28487 -1.2237,-0.58077 -2.0864,-0.65756 -4.1959,-0.3735 -19.7271,-4.28316 -26.1959,-6.59432 -6.133,-2.1912 -10.1851,-2.56632 -25.8876,-2.39664 -10.2391,0.11064 -21.5524,0.90967 -25.1407,1.77562 -3.5883,0.86594 -9.7108,1.65234 -13.6055,1.74755 -7.0753,0.17295 -8.3601,0.35029 -21.4125,2.95545 -21.0409,4.19961 -28.2143,6.00051 -31.4789,7.90288 -1.9912,1.16033 -5.5898,2.86198 -7.9969,3.78144 -4.6859,1.78997 -6.8304,3.3848 -5.8584,4.35684 1.6867,1.68666 8.058,3.99429 16.766,6.07245 5.3377,1.27382 11.3562,2.99905 13.3747,3.83382 3.2257,1.33411 14.9156,3.25479 27.3203,4.48879 2.2361,0.22244 6.2227,1.00878 8.8592,1.74742 11.2924,3.1636 30.1162,4.18169 42.7372,2.31145 15.6339,-2.31673 16.3704,-2.45952 21.2432,-4.11885 2.6111,-0.88913 6.8078,-1.87518 9.326,-2.1912 2.5183,-0.31604 4.7575,-0.75347 4.9762,-0.97207 0.2186,-0.2186 2.8482,-1.03015 5.8436,-1.80345 2.9954,-0.7733 7.0865,-2.23228 9.0914,-3.24219 2.0049,-1.00991 9.3236,-3.75266 16.2638,-6.095 17.9508,-6.05848 17.3005,-5.38886 16.5852,-17.07745 -0.8057,-13.16639 -1.9208,-19.15903 -8.1451,-43.77484 -7.714,-30.50725 -11.956,-41.54774 -24.582,-63.97927 -5.6107,-9.96794 -6.8335,-11.55213 -14.9086,-19.31388 -4.8381,-4.65041 -12.4728,-11.17137 -16.9659,-14.49103 -4.4931,-3.31966 -9.2294,-7.09581 -10.525,-8.39143 -3.6012,-3.60122 -15.2608,-8.94007 -23.2833,-10.66128 -11.1217,-2.38616 -15.3329,-2.68591 -28.0361,-1.99563 -14.5214,0.78907 -29.2156,3.83822 -35.9103,7.45161 -7.2558,3.91629 -18.8297,15.83148 -22.9955,23.67354 -1.7539,3.30184 -3.8214,7.00343 -4.5943,8.22574 -3.1841,5.03535 -7.2272,18.16606 -7.3423,23.84544 -0.068,3.3405 -0.6613,11.01448 -1.3192,17.05328 -0.6578,6.03882 -0.7745,13.54882 -0.2594,16.68892 1.1731,7.15108 1.0001,72.84997 -0.195,74.04506 -1.0134,1.01338 -0.4569,2.68109 1.6515,4.94884 1.2437,1.33779 2.1852,1.12616 5.9708,-1.34214 z m 122.0348,134.54172 c -5.1173,-7.63354 -5.5327,-11.21365 -3.3936,-29.24428 0.9266,-7.81066 0.7898,-9.17121 -0.9759,-9.70584 -2.3678,-0.7169 -3.6852,-3.01185 -2.4424,-4.25461 0.4677,-0.46773 1.9807,-0.90678 3.3622,-0.97568 1.3815,-0.0689 4.0317,-1.28721 5.8893,-2.70733 2.4868,-1.90112 3.9836,-2.34559 5.6757,-1.6854 1.264,0.49317 3.1313,0.45125 4.1495,-0.0931 1.0182,-0.54438 2.7143,-1.08136 3.7691,-1.19326 6.0577,-0.64267 20.8207,-10.95452 22.1986,-15.50556 0.7982,-2.63616 4.1568,-4.80809 5.4443,-3.52064 0.5089,0.50887 0.3602,2.96976 -0.3303,5.46866 -1.3255,4.7966 -0.9373,5.90569 7.0847,20.24487 4.3102,7.7043 6.1614,13.88426 6.1623,20.5717 4e-4,3.1857 0.3221,7.50145 0.7149,9.59054 0.3928,2.0891 0.2202,4.71971 -0.3836,5.8458 -0.6038,1.12609 -1.1533,3.72868 -1.2211,5.78354 -0.1181,3.57899 -0.2903,3.82312 -4.0942,5.80532 -2.184,1.13808 -4.8205,2.17413 -5.859,2.30234 -1.0386,0.12822 -2.5358,0.54017 -3.3272,0.91546 -3.0697,1.45556 -16.6593,2.90239 -22.1463,2.35782 -3.1717,-0.31479 -6.4255,-1.2311 -7.2306,-2.03625 -0.8052,-0.80515 -3.2048,-1.61381 -5.3326,-1.79701 -2.1277,-0.18322 -3.9506,-0.47745 -4.0508,-0.65387 -0.1002,-0.17642 -1.7486,-2.65735 -3.663,-5.51318 l 0,-4e-5 z m 21.2178,5.37429 c 7.3179,0.14053 21.9311,-2.37332 23.6212,-4.06346 2.4295,-2.42943 5.738,-14.42483 5.8437,-21.18656 0.093,-5.93554 -4.2248,-22.18725 -6.4985,-24.46095 -0.3945,-0.39452 -0.6361,-1.59073 -0.5369,-2.65824 0.1039,-1.11849 -0.9888,-3.11016 -2.579,-4.70028 -2.9549,-2.9549 -4.8139,-2.70796 -10.6112,1.40955 -1.3644,0.96905 -3.5099,2.12169 -4.7678,2.56144 -3.2373,1.13172 -3.9811,3.53894 -1.7751,5.74493 2.6856,2.68555 2.3748,14.68967 -0.49,18.92914 -2.8571,4.228 -8.1975,9.61138 -13.3303,13.43769 -4.0523,3.0209 -4.1432,3.19903 -2.9731,5.82994 0.6638,1.49262 2.8449,4.13928 4.847,5.88147 3.0267,2.63385 4.5854,3.18578 9.25,3.27535 l 0,-2e-5 z"
       id="path3340"
       sodipodi:nodetypes="cssssscccssssssssssssssssssssssssssssssssssssccssssssssssssssssssssssssssssssscccsssssssssssssssssssssssssssssccsssssssssssssssssssssssccscccssssssssssssssssssssssssssssssssscccsscccssssssssssssssssscccsssssssssscccssssssssssssssssssssssssssssssssssssscccssssssssszsssssssssssssssssssssssssssssssssssssssccssssssssssssssssssssssscccsssssssssssscc" />
    <path
       style="fill:#6699cc;fill-opacity:1;stroke:none"
       d="M 141.46535,521.38276 C 98.65064,516.73245 93.978137,515.8905 66.001986,507.78477 49.271336,502.93729 46.199905,501.68623 36.121253,495.61371 19.485519,485.59049 13.031176,476.96467 9.8925955,460.56079 7.1376215,446.16185 7.763344,440.76406 15.66401,410.77378 c 7.663451,-29.08982 25.987707,-102.75053 29.37336,-118.0764 3.004346,-13.59981 7.246611,-43.75262 7.232788,-51.40858 -0.0066,-3.67832 -0.692754,-14.02636 -1.524694,-22.99563 -1.931741,-20.82641 -1.928267,-43.76771 0.01008,-66.57894 0.842062,-9.90969 2.203483,-30.63066 3.02538,-46.0466 C 55.854756,66.76979 58.291256,55.548978 68.051851,39.945755 76.28573,26.78313 83.365085,20.936712 99.167074,14.249545 120.19291,5.3517214 120.60132,5.2718683 145.03268,5.2820126 c 34.5385,0.014341 44.2663,2.7353577 72.87535,20.3843654 23.88228,14.733049 29.45163,19.570782 44.88441,38.988155 9.62786,12.113685 12.27549,17.209378 22.63361,43.561187 10.54703,26.83237 12.12051,31.58143 14.4317,43.55775 4.62671,23.97503 6.27704,42.76421 7.26619,82.7259 1.24087,50.13114 2.46079,71.50998 4.97848,87.24622 1.12111,7.00725 2.49147,18.47365 3.04525,25.48089 1.33953,16.94972 4.44862,31.74005 9.51182,45.24908 3.92904,10.48298 4.06048,11.18143 2.34064,12.43901 -1.73769,1.27062 -1.74045,1.53541 -0.0596,5.71174 2.32822,5.78475 10.56408,28.63827 12.41381,34.4468 3.22208,10.11799 3.54496,26.98054 0.76745,40.08071 -2.56718,12.10813 -35.23787,25.28589 -74.84956,30.19067 -5.30886,0.65734 -15.61502,2.07207 -22.90255,3.14384 -24.2805,3.5709 -79.96899,5.16832 -100.90434,2.89443 l 4e-5,0 z m 134.22388,-87.26643 c 3.71418,-3.98221 4.31402,-5.48258 7.43668,-18.60106 2.90615,-12.2089 3.01746,-18.76977 0.47556,-28.02898 -1.42343,-5.18504 -16.10674,-19.87509 -19.86597,-19.87509 -2.62052,0 -5.95442,3.79794 -9.45295,10.76869 -2.25998,4.50298 -7.33014,9.10065 -23.29366,21.12294 -8.59932,6.47623 -13.42236,9.134 -28.35836,15.62706 -9.89824,4.30302 -18.99522,8.67235 -20.21551,9.70964 -2.21066,1.87913 -2.21131,1.89176 -0.18024,3.4788 3.15036,2.46162 6.55225,1.34243 26.59709,-8.75024 l 18.44319,-9.28623 16.21082,10.86913 c 25.11804,16.84129 27.64091,17.85702 32.20335,12.96534 l 0,0 z m -24.65604,-90.92886 c 3.64377,-1.21808 7.46294,-2.83324 8.48704,-3.58924 3.02047,-2.22973 4.57787,-12.38211 3.62744,-23.64654 -1.00415,-11.90124 -1.78346,-14.37604 -8.69526,-27.61305 -5.21766,-9.99249 -5.43901,-10.73067 -4.81347,-16.05296 0.60677,-5.16268 0.49935,-5.57881 -1.44,-5.57881 -1.3082,0 -2.95109,1.3841 -4.37218,3.68346 -4.72209,7.64051 -20.58907,16.69632 -29.26948,16.70506 -2.08114,0.002 -5.28562,0.9194 -7.12105,2.03847 -1.83543,1.11906 -3.92638,2.03466 -4.64656,2.03466 -0.72018,0 -2.13875,0.60643 -3.15238,1.34761 -1.75246,1.28143 -1.72211,1.47802 0.6181,4.00313 2.3886,2.57736 2.43507,2.93527 1.57858,12.15727 -1.35075,14.54371 -0.57983,20.05721 3.81637,27.29414 2.6884,4.42559 4.3666,6.17567 5.96126,6.21658 1.22072,0.0313 4.28344,0.95482 6.80605,2.05221 6.25306,2.72023 22.94151,2.18196 32.61554,-1.05199 l 0,0 z m -102.17838,-4.75729 c 2.43557,-0.65269 3.03596,-3.30339 1.17073,-5.16862 -0.81726,-0.81726 -0.78993,-3.57544 0.10049,-10.1414 1.76679,-13.02859 1.04991,-33.18961 -1.27119,-35.75023 -0.98101,-1.08224 -1.78366,-2.72913 -1.78366,-3.65975 0,-1.08695 -2.82475,-3.12229 -7.89908,-5.6916 -7.99114,-4.04618 -19.31695,-12.12438 -30.11619,-21.48055 -8.93118,-7.73773 -12.859025,-6.39177 -7.3673,2.52457 2.81669,4.57318 3.40773,9.68274 1.12002,9.68274 -2.27143,0 -7.543285,7.07121 -9.87841,13.25006 -4.212045,11.14527 -6.288139,31.67543 -3.763481,37.21645 0.955575,2.09726 1.714028,2.53216 3.593393,2.06047 1.846886,-0.46354 4.21257,0.79548 10.528048,5.60304 12.29418,9.35877 19.65967,11.97062 34.10026,12.09219 5.04522,0.0425 10.2051,-0.19935 11.4664,-0.53737 l -3e-5,0 z m 44.10868,-108.45569 c 13.25493,-1.62546 43.48485,-9.60072 61.89457,-16.32905 18.75824,-6.85571 20.63679,-7.18246 20.63679,-3.58952 0,3.49502 1.01095,5.68916 2.62128,5.68916 2.47568,0 3.49422,-3.77366 3.48943,-12.92825 C 281.59119,175.275 266.29052,114.57671 252.40297,86.969051 242.82772,67.933985 237.36066,61.669291 215.04925,44.165424 199.10747,31.658705 198.81148,31.48423 186.51065,27.3431 170.72302,22.028127 167.33091,21.650339 148.09039,23.064148 120.07724,25.122578 112.1492,27.902383 98.989594,40.280335 89.33601,49.360516 77.723092,67.123965 75.269249,76.56365 c -3.332442,12.819566 -5.981757,42.47831 -4.698758,52.60199 0.701602,5.53609 2.364659,66.71183 2.120169,77.99064 -0.01305,0.60166 3.760199,2.30536 8.384981,3.786 4.624781,1.48063 14.829879,4.74977 22.677989,7.26475 14.75491,4.72831 15.94663,4.98823 42.29829,9.22562 23.50296,3.77932 32.73936,4.27978 46.91157,2.54184 l 0,0 z"
       id="path3419"
       transform="translate(170.75629,246.8287)" />
    <path
       style="fill:#fd3301;fill-opacity:1;stroke:none"
       d="m 258.24404,424.55352 c -4.72301,-2.82789 -12.24783,-7.92814 -16.72181,-11.33389 l -8.13451,-6.19228 3.95781,-3.1455 c 10.01302,-7.9579 25.91849,-25.7942 25.91849,-29.06484 0,-2.07463 1.62107,-1.06753 6.9227,4.30079 4.96281,5.02522 5.43259,5.94195 6.92065,13.50487 1.95389,9.93043 1.36311,17.29855 -2.13143,26.58268 -2.65745,7.0602 -5.02893,10.61463 -7.02852,10.5345 -0.61384,-0.0246 -4.98036,-2.35844 -9.70338,-5.18633 l 0,0 z"
       id="path3423"
       transform="translate(170.75629,246.8287)" />
    <path
       style="fill:#000000;fill-opacity:1;stroke:none"
       d="m 129.02685,337.72558 c -8.27018,-1.05355 -15.63141,-4.42719 -25.29621,-11.5932 -6.076983,-4.50581 -8.713022,-5.88192 -10.582601,-5.52453 -1.932495,0.36942 -2.701407,-0.0807 -3.435378,-2.01123 -1.928426,-5.07214 -0.392079,-22.06223 3.071298,-33.96476 1.78866,-6.14705 7.478991,-14.73119 10.003401,-15.09063 3.22577,-0.4593 3.02079,-4.9848 -0.51242,-11.31307 -1.53993,-2.75815 -2.466561,-5.34811 -2.05919,-5.75548 0.92085,-0.92085 6.81136,2.94115 13.52256,8.86581 8.65155,7.63761 16.9863,13.39922 25.22609,17.43818 4.67267,2.29044 7.89907,4.50264 7.89907,5.41604 0,0.84925 0.72791,2.65503 1.61758,4.01284 2.0012,3.0542 2.29627,26.98956 0.45687,37.05905 -1.05115,5.75435 -0.98558,6.69214 0.58967,8.43277 1.29362,1.42943 1.4682,2.26258 0.64633,3.08445 -1.43305,1.43305 -13.18812,1.95766 -21.14707,0.94376 z m 11.61633,-3.08105 c 2.39892,-1.28387 4.68562,-20.64087 3.95406,-33.47133 -0.71472,-12.53506 -2.18416,-14.75085 -13.86761,-20.91102 -4.99605,-2.6342 -9.41734,-4.78945 -9.82508,-4.78945 -0.40775,0 -0.4302,2.68094 -0.0499,5.95765 1.49482,12.87945 -2.33063,18.62509 -16.03555,24.08466 -5.184875,2.06547 -9.885695,4.21846 -10.446275,4.78442 -0.68234,0.68889 1.170589,3.05906 5.605796,7.17066 11.178919,10.36325 19.922049,15.19422 30.762189,16.99748 7.53956,1.2542 7.87814,1.26025 9.90236,0.17693 l 0,0 z"
       id="path3425"
       transform="translate(170.75629,246.8287)" />
    <path
       style="fill:#000000;fill-opacity:1;stroke:none"
       d="m 220.24844,343.91533 c -3.08319,-1.06793 -6.75905,-2.20902 -8.16859,-2.53576 -1.70114,-0.39434 -3.70242,-2.47445 -5.95237,-6.18685 -4.02163,-6.63565 -4.80265,-12.70139 -3.47577,-26.99398 0.87303,-9.40381 0.84427,-9.61344 -1.63413,-11.91154 l -2.5228,-2.33928 6.03546,-2.75602 c 3.3195,-1.51581 8.68304,-3.10134 11.91897,-3.5234 10.10547,-1.31804 23.86621,-9.5628 28.18908,-16.88952 3.20639,-5.43442 5.13813,-4.59791 4.46407,1.93311 -0.52215,5.05916 -0.16761,6.17985 5.72341,18.09143 5.8184,11.76477 6.35825,13.4474 7.3441,22.89054 1.36093,13.03604 -0.2061,23.28527 -3.93356,25.7276 -3.82467,2.50602 -14.93343,5.20967 -24.03134,5.84876 -6.67948,0.4692 -9.47263,0.198 -13.95653,-1.35509 z m 20.81081,-3.70148 c 5.11538,-0.91153 8.79155,-2.15928 10.04002,-3.40775 2.41987,-2.41986 5.84166,-14.35294 5.84166,-20.37207 0,-2.44134 -0.92978,-8.08039 -2.06618,-12.53121 -1.8511,-7.25006 -3.03695,-10.59206 -6.34096,-17.87035 -1.94161,-4.27709 -5.03699,-4.59553 -11.60333,-1.1937 -8.95927,4.64155 -9.02825,4.75041 -6.86634,10.8374 3.57271,10.05921 -0.2647,18.7512 -12.90448,29.22949 -2.70487,2.24231 -4.95105,4.58243 -4.99151,5.20026 -0.14345,2.19028 4.56376,7.86965 8.06441,9.7299 4.21655,2.24067 9.80451,2.3421 20.82671,0.37803 z"
       id="path3427"
       transform="translate(170.75629,246.8287)" />
    <path
       style="fill:#000000;fill-opacity:1;stroke:none"
       d="M 130.04608,525.06943 C 107.52025,522.72699 97.098556,520.66864 68.09101,512.83297 39.250942,505.04254 25.333564,498.78355 16.528232,489.64396 13.34477,486.33965 9.4981793,481.35428 7.9802546,478.56534 4.202183,471.62379 0.91333539,457.12697 0.86765651,447.21394 0.83466691,440.05465 1.4591412,437.19517 5.9871644,423.77152 c 2.8363941,-8.4087 7.9806026,-26.29628 11.4315756,-39.75019 3.450972,-13.45392 8.34158,-31.80016 10.868018,-40.76943 2.526438,-8.96928 4.973993,-18.37172 5.439012,-20.89433 0.465019,-2.52261 2.670194,-11.69573 4.900389,-20.38472 8.681548,-33.82388 11.847436,-73.04713 7.856515,-97.337 -1.701089,-10.35332 -1.948136,-29.07614 -0.524502,-39.7502 0.523364,-3.92405 1.448613,-20.43567 2.056108,-36.69248 C 49.782488,80.875277 52.520267,60.377469 58.701199,48.179988 62.118959,41.435363 69.972288,30.033816 74.356651,25.45124 79.485438,20.090581 85.592581,16.361979 96.923293,11.673597 115.54665,3.9676909 121.85108,2.2441629 135.51268,1.1238987 c 15.87404,-1.30168609 28.45592,-0.51861507 43.76443,2.7238105 15.32306,3.2455044 33.05297,11.7529018 54.1933,26.0037398 13.72366,9.251206 16.6253,11.742911 26.32689,22.607512 5.99682,6.715706 12.24357,14.348853 13.88168,16.962547 4.05773,6.474353 10.82948,21.17931 14.86129,32.271532 1.83385,5.04522 5.59111,14.677 8.34947,21.40395 7.21521,17.59614 8.69146,23.87925 10.99521,46.79724 1.13186,11.25977 2.70604,25.51753 3.4982,31.68391 1.07986,8.40597 1.30165,18.35316 0.88626,39.75019 -0.65949,33.97099 0.46306,52.71142 5.25045,87.65427 1.92007,14.01449 4.01542,30.06745 4.65634,35.67325 0.84721,7.41021 2.81748,15.22887 7.21808,28.64358 3.32903,10.14817 6.98875,22.73964 8.1327,27.98103 1.14395,5.24139 3.38532,12.53265 4.98081,16.20279 5.79767,13.33647 7.4373,32.74805 3.80274,45.02064 -3.01244,10.17193 -7.11789,14.97155 -17.51349,20.47477 -5.04522,2.67083 -11.49333,5.73944 -14.32914,6.81914 -13.7004,5.21627 -65.71492,13.53588 -102.32227,16.36624 -21.25245,1.64317 -60.84879,1.11523 -82.09955,-1.09461 l 0,0 z m 81.02924,-3.00764 c 10.9313,-0.54331 25.6083,-1.8559 32.61554,-2.91686 7.00725,-1.06097 17.08407,-2.48132 22.39294,-3.15634 29.35334,-3.73228 60.49883,-13.79882 70.07705,-22.64963 3.37211,-3.11601 5.32291,-9.31936 6.29314,-20.01149 0.7752,-8.5429 0.1212,-21.4678 -1.29556,-25.60391 -2.5784,-7.52745 -13.00169,-35.86417 -13.99019,-38.03368 -1.10149,-2.4175 -1.0133,-2.95303 0.69297,-4.2085 1.90989,-1.40528 1.91202,-1.55208 0.0925,-6.35311 -7.541,-19.89866 -10.74242,-34.62712 -12.83184,-59.03425 -0.62859,-7.34262 -1.83469,-16.966 -2.68024,-21.38528 -1.92797,-10.07663 -3.25788,-34.95604 -4.51127,-84.39552 -1.03272,-40.73489 -2.81329,-60.34269 -7.65064,-84.24934 C 297.77068,137.66353 284.4931,101.52853 275.76504,83.3468 268.6549,68.535436 248.42015,44.682358 235.62128,36.024619 224.6894,28.629806 207.43938,18.285641 198.84449,13.971017 176.95419,2.9821083 134.88137,0.30392724 111.69984,8.4237506 98.213609,13.147591 84.841332,19.882043 79.3562,24.712429 74.100751,29.340549 64.570148,42.949358 61.483868,50.232448 56.342254,62.36577 54.435529,75.175289 52.494872,110.62118 c -0.866744,15.83097 -1.990736,34.28746 -2.497759,41.01441 -2.05761,27.2994 -2.210559,35.3418 -0.998259,52.49064 0.693507,9.81014 1.599021,22.65251 2.012253,28.5386 0.811594,11.56035 -0.994318,29.76509 -5.10597,51.4714 -2.540291,13.41076 -20.144959,85.092 -31.039777,126.38522 -7.7126035,29.23209 -7.7914609,29.65894 -7.1554832,38.73096 0.7796812,11.12191 1.9943288,16.38251 5.6958622,24.66858 4.013648,8.98476 10.527336,15.42049 23.196096,22.91848 9.589886,5.67578 13.067925,7.05887 29.729169,11.82227 25.244875,7.21744 39.217916,9.88655 64.734316,12.36544 11.77217,1.14365 23.00924,2.26152 24.97127,2.48415 4.40744,0.5001 28.66821,-0.13885 55.03873,-1.44954 l 0,0 z"
       id="path3433"
       transform="translate(170.75629,246.8287)" />
    <path
       style="fill:#000000;fill-opacity:1;stroke:none"
       d="m 139.2192,225.57358 c -21.03838,-3.57279 -41.727018,-9.131 -60.644518,-16.29275 l -4.586561,-1.73638 -1.424552,-41.20449 C 70.875104,117.50194 70.903572,112.92156 73.005009,95.313391 75.225565,76.707105 76.31601,73.197431 83.658877,61.023162 94.08586,43.735517 107.1413,31.836345 120.10117,27.808427 c 7.89422,-2.453518 24.43262,-4.225495 40.52198,-4.341655 11.20908,-0.08093 13.08229,0.191492 22.42319,3.260978 13.92909,4.577199 15.55136,5.510335 31.16611,17.926853 24.03055,19.108588 28.6236,24.53967 38.6749,45.731388 8.08631,17.048819 12.17421,29.236199 18.7032,55.760349 9.77856,39.72565 12.34241,66.85227 6.42621,67.99217 -1.37932,0.26576 -1.71036,-0.48969 -1.71036,-3.90312 l 0,-4.23266 -3.31251,0.71159 c -1.82189,0.39138 -10.11745,3.18948 -18.43458,6.21801 -16.3095,5.93879 -44.58342,13.73093 -56.41967,15.54894 -14.55866,2.23616 -34.39516,1.25725 -58.92044,-2.90769 z m 60.13491,-1.49535 c 17.01795,-2.91205 31.95453,-7.01693 50.75835,-13.94947 21.95751,-8.09523 25.17471,-9.56415 25.17471,-11.49434 0,-0.97591 -2.47479,-1.56331 -8.72202,-2.07022 -14.07572,-1.14209 -32.38669,-4.82231 -51.36883,-10.32432 -7.48367,-2.16916 -10.6825,-2.49837 -24.27626,-2.49837 -8.61125,0 -20.55614,0.65813 -26.54419,1.4625 -5.98805,0.80437 -15.43444,1.96353 -20.99198,2.57593 -17.65945,1.94594 -41.52318,7.79258 -51.38756,12.59001 -4.824297,2.34624 -8.908978,4.7502 -9.077069,5.34211 -0.460271,1.6208 4.989398,3.85877 19.097839,7.84279 14.75331,4.16611 20.75527,5.51506 28.5386,6.41406 3.08319,0.35612 11.339,1.73398 18.34624,3.06189 7.00725,1.32791 14.8044,2.61258 17.32701,2.85483 7.03022,0.67509 24.0419,-0.25312 33.12516,-1.8074 z M 89.136892,199.00047 C 107.5148,189.18091 148.56407,181.22853 187.12328,180.0178 l 17.32701,-0.54406 12.23083,3.58152 c 14.00443,4.1009 29.61801,7.41466 39.24057,8.32825 3.64377,0.34596 9.55904,1.29968 13.14505,2.11938 3.58602,0.8197 6.68454,1.32585 6.8856,1.12479 1.30593,-1.30592 -2.62014,-25.04499 -7.27877,-44.01132 -6.40893,-26.09217 -10.9629,-39.84949 -17.88161,-54.019496 C 239.47301,73.414892 232.80457,65.260514 210.30174,47.084172 189.68911,30.434603 179.54287,26.642871 155.8634,26.740106 c -20.94317,0.086 -36.30538,3.188592 -45.72863,9.235479 -10.918622,7.006457 -23.952226,24.8506 -29.007547,39.713857 -4.017716,11.812578 -4.726944,23.359351 -4.687452,76.315378 0.03474,46.5823 0.326377,52.12141 2.744235,52.12141 0.197847,0 4.676646,-2.30659 9.952886,-5.12576 z"
       id="path3435"
       transform="translate(170.75629,246.8287)" />
    <path
       style="fill:#000000;fill-opacity:1;stroke:none"
       d="m 265.60443,434.0929 c -2.8029,-1.31953 -12.58098,-7.43022 -21.72908,-13.5793 l -16.6329,-11.18015 -18.87037,9.56878 c -15.34713,7.78222 -19.56816,9.51067 -22.60768,9.25751 -7.77861,-0.64788 -3.85665,-3.29753 20.09563,-13.57644 13.11533,-5.62833 17.02747,-7.87631 26.8465,-15.42646 18.84319,-14.48912 20.1722,-15.73273 23.18439,-21.69463 3.82795,-7.57648 6.4388,-9.91331 9.46284,-8.46965 4.10364,1.95904 12.94319,10.50706 15.66078,15.14427 4.10803,7.00982 4.46192,18.07828 1.03174,32.26881 -2.95948,12.24325 -4.65833,16.17548 -7.99931,18.5156 -2.83324,1.98448 -2.37142,2.02979 -8.44254,-0.82834 z m 7.88854,-9.81177 c 1.53581,-3.08318 3.56738,-8.7681 4.51461,-12.63314 1.4992,-6.11723 1.56,-8.1495 0.46947,-15.69196 -0.68903,-4.76555 -1.88197,-9.85905 -2.65098,-11.3189 -1.46031,-2.77217 -11.49753,-13.05546 -11.98182,-12.27557 -0.15306,0.2465 -1.1956,2.25836 -2.31676,4.4708 -1.96913,3.88579 -20.27892,23.21479 -26.47801,27.95191 l -3.03558,2.31968 2.52596,1.95931 c 3.89014,3.01745 18.13461,12.88276 24.94915,17.27905 8.33387,5.37646 10.4546,5.06432 14.00396,-2.06118 z"
       id="path3439"
       transform="translate(170.75629,246.8287)" />
    <path
       style="fill:#980101;fill-opacity:1;stroke:none"
       d="m 166.33579,225.07528 c -2.24232,-0.24153 -8.6635,-1.33738 -14.2693,-2.43524 -5.6058,-1.09785 -15.35227,-2.7062 -21.65882,-3.57411 -10.95274,-1.50732 -35.947941,-7.91912 -43.895393,-11.26011 l -3.753813,-1.57804 4.076942,-2.47614 c 2.242319,-1.36188 7.836312,-3.83811 12.431097,-5.50273 9.396997,-3.40439 41.446717,-10.23926 48.013407,-10.23926 2.35971,0 8.98859,-0.72203 14.73084,-1.60451 6.28704,-0.96621 17.33347,-1.62218 27.76746,-1.64892 16.80404,-0.0431 17.72692,0.0659 30.57707,3.60967 15.95708,4.40061 30.11587,7.25804 43.82713,8.84488 5.6058,0.64877 10.32134,1.30441 10.47898,1.45697 0.71484,0.6918 -5.1336,3.55548 -13.53668,6.6282 -5.04522,1.84486 -13.53036,4.94144 -18.85586,6.88127 -10.79643,3.93264 -33.37226,9.72458 -44.43135,11.39909 -8.58151,1.29936 -25.76426,2.11699 -31.50171,1.49898 z"
       id="path3441"
       transform="translate(170.75629,246.8287)" />
    <path
       style="fill:#eeeeee;fill-opacity:1;stroke:none"
       d="m 131.09937,333.71368 c -10.81497,-1.8669 -22.92384,-8.81038 -32.410823,-18.58505 l -4.381838,-4.51471 9.731181,-3.8509 c 14.30974,-5.66277 18.72982,-11.72597 17.60347,-24.14745 -0.29757,-3.28175 -0.24055,-5.95824 0.12673,-5.94775 2.14961,0.0614 17.08774,9.08517 18.76761,11.33709 3.92286,5.25869 4.77858,17.73895 2.37781,34.67916 -0.76796,5.41884 -1.70343,10.3494 -2.07881,10.95678 -0.75919,1.2284 -2.94632,1.24476 -9.73533,0.0728 l 0,0 z"
       id="path3443"
       transform="translate(170.75629,246.8287)" />
    <path
       style="fill:#eeeeee;fill-opacity:1;stroke:none"
       d="m 220.01836,338.90522 c -1.827,-1.15661 -4.21091,-3.56491 -5.29757,-5.35178 l -1.97574,-3.24884 8.50958,-8.28275 c 9.50585,-9.25249 11.35995,-13.08888 10.39288,-21.50433 -1.34212,-11.67905 -1.60552,-10.69431 3.69948,-13.83047 6.68876,-3.95419 9.12865,-4.43509 11.1465,-2.19696 3.64406,4.04187 9.08729,22.31459 9.20166,30.88962 0.0991,7.42782 -2.68209,18.49916 -5.21101,20.74421 -2.47656,2.19856 -8.77292,3.66707 -18.48044,4.31024 -7.59838,0.50343 -9.07191,0.31545 -11.98534,-1.52894 z"
       id="path3445"
       transform="translate(170.75629,246.8287)" />
  </g>
</svg>
